<?xml version="1.0" encoding="UTF-8"?>
<svg width="512pt" height="512pt" version="1.1" viewBox="0 0 512 512" xmlns="http://www.w3.org/2000/svg">
 <g>
  <path d="m172.44 281.75c11.824 0 21.41-9.5859 21.41-21.414s-9.5859-21.414-21.41-21.414c-11.828 0-21.414 9.5859-21.414 21.414s9.5859 21.414 21.414 21.414z"/>
  <path d="m99.641 203.61c-4.5938-9.1641 5.1172-18.898 14.293-14.332 34.113 16.992 68.453 9.4883 86.488-17.586 6.0781-9.1289 20.324-4.2383 19.516 6.7031-2.9844 40.262 6.9609 61.211 36.484 71.918 9.0781 3.293 9.457 15.988 0.59375 19.82-32.633 14.094-45.23 36.008-42.043 74.664 0.90234 10.941-13.32 15.945-19.469 6.8477-19.949-29.531-59.121-43.016-99.238-30.309-10.539 3.3359-18.57-9.5898-10.914-17.559 28.445-29.605 32.902-63.047 14.289-100.17zm18.809 91.895c28.508-1.9688 55.363 6.6133 75.652 23.27 3.2266-25.234 14.902-44.246 35.535-58.055-18.793-12.504-28.523-31.172-30.922-56.656-19.574 14.441-44.949 19.117-70.91 12.891 8.0508 27.668 4.9883 54.266-9.3555 78.551z"/>
  <path d="m113.86 189.24c-26.785-13.094-45.203-31.148-55.672-54.324-2.4258-5.3672-8.7461-7.7539-14.113-5.3281-5.3672 2.4258-7.7539 8.7461-5.3281 14.113 12.598 27.887 34.652 49.508 65.746 64.707 5.293 2.5859 11.68 0.39453 14.266-4.8984 2.5898-5.293 0.39453-11.68-4.8984-14.27z"/>
  <path d="m80.797 174c-15.066 2.6016-27.996 0.67188-39.215-5.6758-5.125-2.9023-11.637-1.0977-14.535 4.0273-2.9023 5.1289-1.0977 11.637 4.0273 14.535 15.672 8.8711 33.598 11.547 53.352 8.1367 5.8047-1.0039 9.6992-6.5195 8.6953-12.324-1-5.8086-6.5195-9.6992-12.324-8.6992z"/>
  <path d="m200.9 171.82c11.145-27.652 12.75-53.398 5.0234-77.625-1.7891-5.6094 1.3086-11.613 6.9219-13.402 5.6133-1.7891 11.613 1.3086 13.402 6.9219 9.2969 29.152 7.375 59.98-5.5625 92.082-2.1992 5.4609-8.4141 8.1055-13.879 5.9062-5.4648-2.2031-8.1094-8.418-5.9062-13.883z"/>
  <path d="m215.27 138.36c12.938-8.1445 21.254-18.234 25.344-30.457 1.8672-5.5859 7.9141-8.6016 13.5-6.7344 5.5859 1.8711 8.6016 7.9141 6.7305 13.5-5.7109 17.078-17.242 31.059-34.203 41.742-4.9844 3.1406-11.57 1.6445-14.711-3.3398s-1.6445-11.57 3.3398-14.711z"/>
  <path d="m216.64 346.84c10.223 28.012 26.254 48.215 48.207 61.051 5.0859 2.9727 6.7969 9.5078 3.8242 14.59-2.9727 5.0859-9.5078 6.8008-14.594 3.8281-26.414-15.445-45.613-39.641-57.48-72.152-2.0195-5.5352 0.83203-11.656 6.3633-13.676 5.5352-2.0234 11.66 0.82812 13.68 6.3594z"/>
  <path d="m228.34 381.32c-4.1602 14.711-3.5938 27.773 1.5508 39.594 2.3477 5.4023-0.125 11.688-5.5273 14.035-5.4023 2.3516-11.688-0.125-14.035-5.5273-7.1836-16.512-7.9727-34.617-2.5156-53.906 1.6055-5.6719 7.5-8.9648 13.168-7.3633 5.668 1.6055 8.9648 7.5 7.3594 13.168z"/>
  <path d="m100.22 319.09c-16.648 24.734-23.574 49.578-21.055 74.883 0.58594 5.8633-3.6953 11.086-9.5547 11.672-5.8633 0.58203-11.09-3.6953-11.672-9.5586-3.0312-30.449 5.2578-60.199 24.586-88.91 3.2891-4.8867 9.918-6.1836 14.805-2.8906 4.8867 3.2891 6.1797 9.918 2.8906 14.805z"/>
  <path d="m79.211 348.82c-14.348 5.2812-24.582 13.418-31.121 24.523-2.9922 5.0781-9.5273 6.7695-14.605 3.7812-5.0781-2.9922-6.7695-9.5273-3.7773-14.605 9.1367-15.516 23.32-26.797 42.133-33.719 5.5312-2.0352 11.66 0.79688 13.695 6.3242s-0.79688 11.66-6.3242 13.695z"/>
  <path d="m250.49 270.76c13.516 2.9766 26.371 3.5156 41.203 2.2109 7.0664-0.62109 10.082-1.0312 26.129-3.3789 35.578-5.207 56.965-5.6133 89.254 1.1875 5.7617 1.2148 11.422-2.4766 12.633-8.2383 1.2148-5.7656-2.4727-11.422-8.2383-12.637-35.184-7.4102-58.887-6.9609-96.738-1.4219-15.551 2.2773-18.43 2.668-24.91 3.2383-12.805 1.125-23.523 0.67578-34.738-1.7969-5.7539-1.2656-11.445 2.3672-12.715 8.1211-1.2695 5.7539 2.3672 11.445 8.1211 12.715z"/>
  <path d="m407.56 270.87c29.738 4.8359 55.129-8.6953 74.867-38.922 3.2227-4.9297 1.8359-11.539-3.0977-14.762-4.9297-3.2227-11.539-1.8359-14.762 3.0977-15.422 23.613-32.852 32.902-53.582 29.531-5.8164-0.94531-11.297 3-12.242 8.8164-0.94531 5.8125 3.0039 11.293 8.8164 12.238z"/>
  <path d="m404.97 270.1c27.414 12.082 53.047 15.992 76.738 11.461 5.7852-1.1055 9.5781-6.6914 8.4727-12.48-1.1055-5.7852-6.6953-9.5781-12.48-8.4727-19.129 3.6562-40.449 0.40625-64.125-10.031-5.3906-2.375-11.688 0.070313-14.062 5.4609-2.3789 5.3906 0.066406 11.688 5.457 14.062z"/>
  <path d="m405.24 270.21c34.879 14.234 49.367 29.211 47.195 44.125-0.84766 5.8281 3.1914 11.242 9.0234 12.09 5.8281 0.84766 11.242-3.1914 12.09-9.0195 3.9844-27.391-17.348-49.438-60.25-66.945-5.4531-2.2266-11.68 0.39062-13.906 5.8438-2.2266 5.457 0.39062 11.68 5.8477 13.906z"/>
 </g>
</svg>
